<mxfile host="app.diagrams.net" agent="Mozilla/5.0 (Windows NT 10.0; Win64; x64) AppleWebKit/537.36 (KHTML, like Gecko) Chrome/140.0.0.0 Safari/537.36 Edg/140.0.0.0" version="28.2.2">
  <diagram name="Page-1" id="5EUUsYe5BdCuTAwYtzyW">
    <mxGraphModel dx="603" dy="585" grid="1" gridSize="10" guides="1" tooltips="1" connect="1" arrows="1" fold="1" page="1" pageScale="1" pageWidth="850" pageHeight="1100" math="0" shadow="0">
      <root>
        <mxCell id="0" />
        <mxCell id="1" parent="0" />
        <mxCell id="vxpXyjJ1BgaewFKf-Y3P-5" value="" style="rounded=1;whiteSpace=wrap;html=1;arcSize=3;strokeWidth=3;" parent="1" vertex="1">
          <mxGeometry x="20" y="570" width="570" height="320" as="geometry" />
        </mxCell>
        <mxCell id="vxpXyjJ1BgaewFKf-Y3P-1" value="公司内网&lt;br&gt;&lt;span&gt;(&lt;span style=&quot;color: rgb(105, 93, 105); font-family: Inter, -apple-system, BlinkMacSystemFont, &amp;quot;Segoe UI&amp;quot;, &amp;quot;SF Pro SC&amp;quot;, &amp;quot;SF Pro Display&amp;quot;, &amp;quot;SF Pro Icons&amp;quot;, &amp;quot;PingFang SC&amp;quot;, &amp;quot;Hiragino Sans GB&amp;quot;, &amp;quot;Microsoft YaHei&amp;quot;, &amp;quot;Helvetica Neue&amp;quot;, Helvetica, Arial, &amp;quot;Times New Roman&amp;quot;, &amp;quot;Arial Unicode MS&amp;quot;, &amp;quot;Lucida Sans Unicode&amp;quot;, KaTeX_Main, sans-serif; font-size: 13.6px; text-align: start; white-space: pre;&quot;&gt;192.168.0.0/16&lt;/span&gt;)&lt;/span&gt;" style="rounded=1;whiteSpace=wrap;html=1;arcSize=8;strokeWidth=3;fillColor=#fff2cc;strokeColor=#d6b656;verticalAlign=top;" parent="1" vertex="1">
          <mxGeometry x="40" y="20" width="570" height="290" as="geometry" />
        </mxCell>
        <mxCell id="vxpXyjJ1BgaewFKf-Y3P-2" value="" style="verticalLabelPosition=bottom;html=1;verticalAlign=top;align=center;strokeColor=none;fillColor=#00BEF2;shape=mxgraph.azure.enterprise;pointerEvents=1;" parent="1" vertex="1">
          <mxGeometry x="50" y="30" width="30" height="50" as="geometry" />
        </mxCell>
        <mxCell id="vxpXyjJ1BgaewFKf-Y3P-3" value="内网客户端" style="rounded=0;whiteSpace=wrap;html=1;fillColor=#f8cecc;strokeColor=#b85450;" parent="1" vertex="1">
          <mxGeometry x="90" y="130" width="180" height="90" as="geometry" />
        </mxCell>
        <mxCell id="vxpXyjJ1BgaewFKf-Y3P-4" value="边际网关&lt;br&gt;（Border GW）" style="rounded=0;whiteSpace=wrap;html=1;fillColor=#d5e8d4;strokeColor=#82b366;" parent="1" vertex="1">
          <mxGeometry x="390" y="130" width="180" height="90" as="geometry" />
        </mxCell>
        <mxCell id="vxpXyjJ1BgaewFKf-Y3P-6" value="VPC" style="points=[];aspect=fixed;html=1;align=center;shadow=0;dashed=0;fillColor=#FF6A00;strokeColor=none;shape=mxgraph.alibaba_cloud.vpc_virtual_private_cloud;" parent="1" vertex="1">
          <mxGeometry x="40" y="580" width="57" height="36.6" as="geometry" />
        </mxCell>
        <mxCell id="uaWnhBnutROTOtkjd1xz-2" value="" style="points=[];aspect=fixed;html=1;align=center;shadow=0;dashed=0;fillColor=#FF6A00;strokeColor=none;shape=mxgraph.alibaba_cloud.ecs_elastic_compute_service;" vertex="1" parent="1">
          <mxGeometry x="221.4" y="650" width="48.6" height="45.3" as="geometry" />
        </mxCell>
        <mxCell id="uaWnhBnutROTOtkjd1xz-3" value="CEN" style="points=[];aspect=fixed;html=1;align=center;shadow=0;dashed=0;fillColor=#FF6A00;strokeColor=none;shape=mxgraph.alibaba_cloud.cen_cloud_enterprise_network;verticalAlign=bottom;" vertex="1" parent="1">
          <mxGeometry x="300.40000000000003" y="450" width="53.4" height="54.900000000000006" as="geometry" />
        </mxCell>
        <mxCell id="uaWnhBnutROTOtkjd1xz-4" value="VBR" style="points=[];aspect=fixed;html=1;align=center;shadow=0;dashed=0;fillColor=#FF6A00;strokeColor=none;shape=mxgraph.alibaba_cloud.vbr_virtual_border_router;" vertex="1" parent="1">
          <mxGeometry x="296.2" y="370" width="57.599999999999994" height="57.599999999999994" as="geometry" />
        </mxCell>
        <mxCell id="uaWnhBnutROTOtkjd1xz-5" value="NAT" style="points=[];aspect=fixed;html=1;align=center;shadow=0;dashed=0;fillColor=#FF6A00;strokeColor=none;shape=mxgraph.alibaba_cloud.vpn_gateway;" vertex="1" parent="1">
          <mxGeometry x="310" y="550" width="54.900000000000006" height="54.900000000000006" as="geometry" />
        </mxCell>
        <mxCell id="uaWnhBnutROTOtkjd1xz-6" value="VNP" style="points=[];aspect=fixed;html=1;align=center;shadow=0;dashed=0;fillColor=#FF6A00;strokeColor=none;shape=mxgraph.alibaba_cloud.nat_gateway;" vertex="1" parent="1">
          <mxGeometry x="200" y="550" width="51.6" height="41.699999999999996" as="geometry" />
        </mxCell>
        <mxCell id="uaWnhBnutROTOtkjd1xz-7" value="TR" style="points=[];aspect=fixed;html=1;align=center;shadow=0;dashed=0;fillColor=#FF6A00;strokeColor=none;shape=mxgraph.alibaba_cloud.tr_transit_router;" vertex="1" parent="1">
          <mxGeometry x="420" y="544.6" width="52.5" height="52.5" as="geometry" />
        </mxCell>
      </root>
    </mxGraphModel>
  </diagram>
</mxfile>
